<?xml version="1.0" standalone="no"?>
<!DOCTYPE svg PUBLIC "-//W3C//DTD SVG 20010904//EN"
 "http://www.w3.org/TR/2001/REC-SVG-20010904/DTD/svg10.dtd">
<svg version="1.0" xmlns="http://www.w3.org/2000/svg"
 width="225.000000pt" height="225.000000pt" viewBox="0 0 225.000000 225.000000"
 preserveAspectRatio="xMidYMid meet">

<g transform="translate(0.000000,225.000000) scale(0.100000,-0.100000)"
fill="#000000" stroke="none">
<path d="M1085 1991 c-31 -18 -177 -157 -391 -373 -362 -363 -367 -371 -367
-463 0 -91 9 -104 302 -399 179 -181 290 -285 316 -297 51 -24 138 -24 188 -1
50 23 730 690 760 746 21 40 22 50 22 351 l0 310 -28 48 c-15 26 -47 60 -69
75 l-41 27 -321 3 -321 2 -50 -29z m687 -110 l33 -29 0 -296 0 -296 -356 -355
-355 -355 -49 0 -49 0 -273 272 c-181 181 -276 283 -283 304 -9 25 -8 40 3 66
9 19 158 176 359 376 l344 342 297 0 297 0 32 -29z"/>
<path d="M1444 1706 c-27 -27 -34 -42 -34 -74 0 -82 82 -134 156 -98 104 49
67 206 -48 206 -32 0 -47 -7 -74 -34z"/>
<path d="M1585 730 c-386 -387 -397 -395 -545 -395 -133 0 -155 15 -421 274
-124 120 -238 238 -254 261 l-30 43 -7 -34 c-7 -37 5 -106 26 -148 8 -14 108
-118 223 -231 216 -214 258 -245 364 -269 101 -24 226 -5 320 46 61 33 590
548 625 610 18 30 28 64 32 108 2 36 3 65 1 65 -2 0 -153 -149 -334 -330z"/>
</g>
</svg>
